<mxfile host="app.diagrams.net" agent="Mozilla/5.0 (Windows NT 10.0; Win64; x64) AppleWebKit/537.36 (KHTML, like Gecko) Chrome/134.0.0.0 Safari/537.36" version="26.1.0">
  <diagram name="Página-1" id="804PP0rt3Bs-FxxBjAJ4">
    <mxGraphModel dx="2827" dy="3862" grid="1" gridSize="10" guides="1" tooltips="1" connect="1" arrows="1" fold="1" page="1" pageScale="1" pageWidth="827" pageHeight="1169" math="0" shadow="0">
      <root>
        <mxCell id="0" />
        <mxCell id="1" parent="0" />
        <mxCell id="w5zsb_8FG-ZebLFqrzIn-1" value="Categorías" style="rounded=0;whiteSpace=wrap;html=1;labelBackgroundColor=none;fillColor=#A8DADC;strokeColor=#457B9D;fontColor=#1D3557;" vertex="1" parent="1">
          <mxGeometry x="-580" y="40" width="120" height="60" as="geometry" />
        </mxCell>
        <mxCell id="w5zsb_8FG-ZebLFqrzIn-2" value="Productos" style="rounded=0;whiteSpace=wrap;html=1;labelBackgroundColor=none;fillColor=#A8DADC;strokeColor=#457B9D;fontColor=#1D3557;" vertex="1" parent="1">
          <mxGeometry x="30" y="40" width="120" height="60" as="geometry" />
        </mxCell>
        <mxCell id="w5zsb_8FG-ZebLFqrzIn-4" value="Movimientos en stock" style="rounded=0;whiteSpace=wrap;html=1;labelBackgroundColor=none;fillColor=#A8DADC;strokeColor=#457B9D;fontColor=#1D3557;" vertex="1" parent="1">
          <mxGeometry x="520" y="-380" width="120" height="60" as="geometry" />
        </mxCell>
        <mxCell id="w5zsb_8FG-ZebLFqrzIn-5" value="Empleados" style="rounded=0;whiteSpace=wrap;html=1;labelBackgroundColor=none;fillColor=#A8DADC;strokeColor=#457B9D;fontColor=#1D3557;" vertex="1" parent="1">
          <mxGeometry x="-140" y="-390" width="120" height="60" as="geometry" />
        </mxCell>
        <mxCell id="w5zsb_8FG-ZebLFqrzIn-6" value="Inventario" style="rounded=0;whiteSpace=wrap;html=1;labelBackgroundColor=none;fillColor=#A8DADC;strokeColor=#457B9D;fontColor=#1D3557;" vertex="1" parent="1">
          <mxGeometry x="520" y="40" width="120" height="60" as="geometry" />
        </mxCell>
        <mxCell id="w5zsb_8FG-ZebLFqrzIn-7" value="Devoluciones" style="rounded=0;whiteSpace=wrap;html=1;labelBackgroundColor=none;fillColor=#A8DADC;strokeColor=#457B9D;fontColor=#1D3557;" vertex="1" parent="1">
          <mxGeometry x="750" y="430" width="120" height="60" as="geometry" />
        </mxCell>
        <mxCell id="w5zsb_8FG-ZebLFqrzIn-8" value="Nombre" style="ellipse;whiteSpace=wrap;html=1;labelBackgroundColor=none;fillColor=#A8DADC;strokeColor=#457B9D;fontColor=#1D3557;" vertex="1" parent="1">
          <mxGeometry x="-660" y="-90" width="120" height="80" as="geometry" />
        </mxCell>
        <mxCell id="w5zsb_8FG-ZebLFqrzIn-9" value="Descripción" style="ellipse;whiteSpace=wrap;html=1;labelBackgroundColor=none;fillColor=#A8DADC;strokeColor=#457B9D;fontColor=#1D3557;" vertex="1" parent="1">
          <mxGeometry x="-790" y="20" width="120" height="80" as="geometry" />
        </mxCell>
        <mxCell id="w5zsb_8FG-ZebLFqrzIn-10" value="Nombre" style="ellipse;whiteSpace=wrap;html=1;labelBackgroundColor=none;fillColor=#A8DADC;strokeColor=#457B9D;fontColor=#1D3557;" vertex="1" parent="1">
          <mxGeometry x="-360" y="-470" width="120" height="80" as="geometry" />
        </mxCell>
        <mxCell id="w5zsb_8FG-ZebLFqrzIn-11" value="Apellido" style="ellipse;whiteSpace=wrap;html=1;labelBackgroundColor=none;fillColor=#A8DADC;strokeColor=#457B9D;fontColor=#1D3557;" vertex="1" parent="1">
          <mxGeometry x="-290" y="-580" width="120" height="80" as="geometry" />
        </mxCell>
        <mxCell id="w5zsb_8FG-ZebLFqrzIn-12" value="Cargo" style="ellipse;whiteSpace=wrap;html=1;labelBackgroundColor=none;fillColor=#A8DADC;strokeColor=#457B9D;fontColor=#1D3557;" vertex="1" parent="1">
          <mxGeometry x="-140" y="-610" width="120" height="80" as="geometry" />
        </mxCell>
        <mxCell id="w5zsb_8FG-ZebLFqrzIn-13" value="Teléfono" style="ellipse;whiteSpace=wrap;html=1;labelBackgroundColor=none;fillColor=#A8DADC;strokeColor=#457B9D;fontColor=#1D3557;" vertex="1" parent="1">
          <mxGeometry x="-10" y="-630" width="120" height="80" as="geometry" />
        </mxCell>
        <mxCell id="w5zsb_8FG-ZebLFqrzIn-14" value="Correo electrónico" style="ellipse;whiteSpace=wrap;html=1;labelBackgroundColor=none;fillColor=#A8DADC;strokeColor=#457B9D;fontColor=#1D3557;" vertex="1" parent="1">
          <mxGeometry x="150" y="-620" width="120" height="80" as="geometry" />
        </mxCell>
        <mxCell id="w5zsb_8FG-ZebLFqrzIn-15" value="Cantidad disponible" style="ellipse;whiteSpace=wrap;html=1;labelBackgroundColor=none;fillColor=#A8DADC;strokeColor=#457B9D;fontColor=#1D3557;" vertex="1" parent="1">
          <mxGeometry x="660" y="-50" width="120" height="80" as="geometry" />
        </mxCell>
        <mxCell id="w5zsb_8FG-ZebLFqrzIn-16" value="Fecha de actualización" style="ellipse;whiteSpace=wrap;html=1;labelBackgroundColor=none;fillColor=#A8DADC;strokeColor=#457B9D;fontColor=#1D3557;" vertex="1" parent="1">
          <mxGeometry x="650" y="140" width="120" height="80" as="geometry" />
        </mxCell>
        <mxCell id="w5zsb_8FG-ZebLFqrzIn-17" value="Fecha devolución" style="ellipse;whiteSpace=wrap;html=1;labelBackgroundColor=none;fillColor=#A8DADC;strokeColor=#457B9D;fontColor=#1D3557;" vertex="1" parent="1">
          <mxGeometry x="810" y="300" width="120" height="80" as="geometry" />
        </mxCell>
        <mxCell id="w5zsb_8FG-ZebLFqrzIn-18" value="Motivo" style="ellipse;whiteSpace=wrap;html=1;labelBackgroundColor=none;fillColor=#A8DADC;strokeColor=#457B9D;fontColor=#1D3557;" vertex="1" parent="1">
          <mxGeometry x="940" y="400" width="120" height="80" as="geometry" />
        </mxCell>
        <mxCell id="w5zsb_8FG-ZebLFqrzIn-19" value="Cantidad&amp;nbsp;" style="ellipse;whiteSpace=wrap;html=1;labelBackgroundColor=none;fillColor=#A8DADC;strokeColor=#457B9D;fontColor=#1D3557;" vertex="1" parent="1">
          <mxGeometry x="867" y="540" width="120" height="80" as="geometry" />
        </mxCell>
        <mxCell id="w5zsb_8FG-ZebLFqrzIn-20" value="Nombre" style="ellipse;whiteSpace=wrap;html=1;labelBackgroundColor=none;fillColor=#A8DADC;strokeColor=#457B9D;fontColor=#1D3557;" vertex="1" parent="1">
          <mxGeometry x="-160" y="-80" width="120" height="80" as="geometry" />
        </mxCell>
        <mxCell id="w5zsb_8FG-ZebLFqrzIn-21" value="Marca&amp;nbsp;" style="ellipse;whiteSpace=wrap;html=1;labelBackgroundColor=none;fillColor=#A8DADC;strokeColor=#457B9D;fontColor=#1D3557;" vertex="1" parent="1">
          <mxGeometry x="-150" y="-180" width="120" height="80" as="geometry" />
        </mxCell>
        <mxCell id="w5zsb_8FG-ZebLFqrzIn-22" value="Descripción" style="ellipse;whiteSpace=wrap;html=1;labelBackgroundColor=none;fillColor=#A8DADC;strokeColor=#457B9D;fontColor=#1D3557;" vertex="1" parent="1">
          <mxGeometry x="-70" y="-270" width="120" height="80" as="geometry" />
        </mxCell>
        <mxCell id="w5zsb_8FG-ZebLFqrzIn-23" value="Precio" style="ellipse;whiteSpace=wrap;html=1;labelBackgroundColor=none;fillColor=#A8DADC;strokeColor=#457B9D;fontColor=#1D3557;" vertex="1" parent="1">
          <mxGeometry x="60" y="-260" width="120" height="80" as="geometry" />
        </mxCell>
        <mxCell id="w5zsb_8FG-ZebLFqrzIn-24" value="Fecha de vencimiento" style="ellipse;whiteSpace=wrap;html=1;labelBackgroundColor=none;fillColor=#A8DADC;strokeColor=#457B9D;fontColor=#1D3557;" vertex="1" parent="1">
          <mxGeometry x="170" y="-210" width="120" height="80" as="geometry" />
        </mxCell>
        <mxCell id="w5zsb_8FG-ZebLFqrzIn-25" value="Categoría" style="ellipse;whiteSpace=wrap;html=1;labelBackgroundColor=none;fillColor=#A8DADC;strokeColor=#457B9D;fontColor=#1D3557;" vertex="1" parent="1">
          <mxGeometry x="240" y="-120" width="120" height="80" as="geometry" />
        </mxCell>
        <mxCell id="w5zsb_8FG-ZebLFqrzIn-26" value="Tipo de movimiento" style="ellipse;whiteSpace=wrap;html=1;labelBackgroundColor=none;fillColor=#A8DADC;strokeColor=#457B9D;fontColor=#1D3557;" vertex="1" parent="1">
          <mxGeometry x="560" y="-520" width="120" height="80" as="geometry" />
        </mxCell>
        <mxCell id="w5zsb_8FG-ZebLFqrzIn-27" value="Cantidad" style="ellipse;whiteSpace=wrap;html=1;labelBackgroundColor=none;fillColor=#A8DADC;strokeColor=#457B9D;fontColor=#1D3557;" vertex="1" parent="1">
          <mxGeometry x="700" y="-480" width="120" height="80" as="geometry" />
        </mxCell>
        <mxCell id="w5zsb_8FG-ZebLFqrzIn-28" value="Fecha de movimiento" style="ellipse;whiteSpace=wrap;html=1;labelBackgroundColor=none;fillColor=#A8DADC;strokeColor=#457B9D;fontColor=#1D3557;" vertex="1" parent="1">
          <mxGeometry x="750" y="-380" width="120" height="80" as="geometry" />
        </mxCell>
        <mxCell id="w5zsb_8FG-ZebLFqrzIn-29" value="Motivo" style="ellipse;whiteSpace=wrap;html=1;labelBackgroundColor=none;fillColor=#A8DADC;strokeColor=#457B9D;fontColor=#1D3557;" vertex="1" parent="1">
          <mxGeometry x="650" y="-280" width="120" height="80" as="geometry" />
        </mxCell>
        <mxCell id="w5zsb_8FG-ZebLFqrzIn-32" value="" style="endArrow=none;html=1;rounded=0;entryX=1;entryY=1;entryDx=0;entryDy=0;exitX=0;exitY=0.25;exitDx=0;exitDy=0;labelBackgroundColor=none;strokeColor=#457B9D;fontColor=default;" edge="1" parent="1" source="w5zsb_8FG-ZebLFqrzIn-2" target="w5zsb_8FG-ZebLFqrzIn-20">
          <mxGeometry width="50" height="50" relative="1" as="geometry">
            <mxPoint x="60" y="210" as="sourcePoint" />
            <mxPoint x="110" y="160" as="targetPoint" />
          </mxGeometry>
        </mxCell>
        <mxCell id="w5zsb_8FG-ZebLFqrzIn-33" value="" style="endArrow=none;html=1;rounded=0;exitX=0.25;exitY=0;exitDx=0;exitDy=0;entryX=1;entryY=1;entryDx=0;entryDy=0;labelBackgroundColor=none;strokeColor=#457B9D;fontColor=default;" edge="1" parent="1" source="w5zsb_8FG-ZebLFqrzIn-2" target="w5zsb_8FG-ZebLFqrzIn-21">
          <mxGeometry width="50" height="50" relative="1" as="geometry">
            <mxPoint x="100" y="40" as="sourcePoint" />
            <mxPoint x="150" y="-10" as="targetPoint" />
          </mxGeometry>
        </mxCell>
        <mxCell id="w5zsb_8FG-ZebLFqrzIn-34" value="" style="endArrow=none;html=1;rounded=0;entryX=0.5;entryY=1;entryDx=0;entryDy=0;exitX=0.5;exitY=0;exitDx=0;exitDy=0;labelBackgroundColor=none;strokeColor=#457B9D;fontColor=default;" edge="1" parent="1" source="w5zsb_8FG-ZebLFqrzIn-2" target="w5zsb_8FG-ZebLFqrzIn-22">
          <mxGeometry width="50" height="50" relative="1" as="geometry">
            <mxPoint x="100" y="40" as="sourcePoint" />
            <mxPoint x="150" y="-10" as="targetPoint" />
          </mxGeometry>
        </mxCell>
        <mxCell id="w5zsb_8FG-ZebLFqrzIn-35" value="" style="endArrow=none;html=1;rounded=0;entryX=0.5;entryY=1;entryDx=0;entryDy=0;exitX=0.75;exitY=0;exitDx=0;exitDy=0;labelBackgroundColor=none;strokeColor=#457B9D;fontColor=default;" edge="1" parent="1" source="w5zsb_8FG-ZebLFqrzIn-2" target="w5zsb_8FG-ZebLFqrzIn-23">
          <mxGeometry width="50" height="50" relative="1" as="geometry">
            <mxPoint x="100" y="40" as="sourcePoint" />
            <mxPoint x="150" y="-10" as="targetPoint" />
          </mxGeometry>
        </mxCell>
        <mxCell id="w5zsb_8FG-ZebLFqrzIn-36" value="" style="endArrow=none;html=1;rounded=0;entryX=0;entryY=1;entryDx=0;entryDy=0;exitX=1;exitY=0;exitDx=0;exitDy=0;labelBackgroundColor=none;strokeColor=#457B9D;fontColor=default;" edge="1" parent="1" source="w5zsb_8FG-ZebLFqrzIn-2" target="w5zsb_8FG-ZebLFqrzIn-24">
          <mxGeometry width="50" height="50" relative="1" as="geometry">
            <mxPoint x="100" y="40" as="sourcePoint" />
            <mxPoint x="150" y="-10" as="targetPoint" />
          </mxGeometry>
        </mxCell>
        <mxCell id="w5zsb_8FG-ZebLFqrzIn-37" value="" style="endArrow=none;html=1;rounded=0;exitX=1;exitY=0.25;exitDx=0;exitDy=0;entryX=0;entryY=1;entryDx=0;entryDy=0;labelBackgroundColor=none;strokeColor=#457B9D;fontColor=default;" edge="1" parent="1" source="w5zsb_8FG-ZebLFqrzIn-2" target="w5zsb_8FG-ZebLFqrzIn-25">
          <mxGeometry width="50" height="50" relative="1" as="geometry">
            <mxPoint x="300" y="40" as="sourcePoint" />
            <mxPoint x="350" y="-10" as="targetPoint" />
          </mxGeometry>
        </mxCell>
        <mxCell id="w5zsb_8FG-ZebLFqrzIn-38" value="" style="endArrow=none;html=1;rounded=0;entryX=1;entryY=1;entryDx=0;entryDy=0;exitX=0.5;exitY=0;exitDx=0;exitDy=0;labelBackgroundColor=none;strokeColor=#457B9D;fontColor=default;" edge="1" parent="1" source="w5zsb_8FG-ZebLFqrzIn-1" target="w5zsb_8FG-ZebLFqrzIn-8">
          <mxGeometry width="50" height="50" relative="1" as="geometry">
            <mxPoint x="-590" y="80" as="sourcePoint" />
            <mxPoint x="-540" y="30" as="targetPoint" />
          </mxGeometry>
        </mxCell>
        <mxCell id="w5zsb_8FG-ZebLFqrzIn-39" value="" style="endArrow=none;html=1;rounded=0;exitX=1;exitY=0.5;exitDx=0;exitDy=0;entryX=0;entryY=0.5;entryDx=0;entryDy=0;labelBackgroundColor=none;strokeColor=#457B9D;fontColor=default;" edge="1" parent="1" source="w5zsb_8FG-ZebLFqrzIn-9" target="w5zsb_8FG-ZebLFqrzIn-1">
          <mxGeometry width="50" height="50" relative="1" as="geometry">
            <mxPoint x="-590" y="70" as="sourcePoint" />
            <mxPoint x="-540" y="20" as="targetPoint" />
          </mxGeometry>
        </mxCell>
        <mxCell id="w5zsb_8FG-ZebLFqrzIn-40" value="" style="endArrow=none;html=1;rounded=0;exitX=1;exitY=0.5;exitDx=0;exitDy=0;entryX=0;entryY=0.75;entryDx=0;entryDy=0;labelBackgroundColor=none;strokeColor=#457B9D;fontColor=default;" edge="1" parent="1" source="w5zsb_8FG-ZebLFqrzIn-10" target="w5zsb_8FG-ZebLFqrzIn-5">
          <mxGeometry width="50" height="50" relative="1" as="geometry">
            <mxPoint x="-120" y="-250" as="sourcePoint" />
            <mxPoint x="-70" y="-300" as="targetPoint" />
          </mxGeometry>
        </mxCell>
        <mxCell id="w5zsb_8FG-ZebLFqrzIn-41" value="" style="endArrow=none;html=1;rounded=0;entryX=0;entryY=0;entryDx=0;entryDy=0;exitX=1;exitY=1;exitDx=0;exitDy=0;labelBackgroundColor=none;strokeColor=#457B9D;fontColor=default;" edge="1" parent="1" source="w5zsb_8FG-ZebLFqrzIn-11" target="w5zsb_8FG-ZebLFqrzIn-5">
          <mxGeometry width="50" height="50" relative="1" as="geometry">
            <mxPoint x="-160" y="-230" as="sourcePoint" />
            <mxPoint x="-110" y="-280" as="targetPoint" />
          </mxGeometry>
        </mxCell>
        <mxCell id="w5zsb_8FG-ZebLFqrzIn-42" value="" style="endArrow=none;html=1;rounded=0;entryX=0.5;entryY=0;entryDx=0;entryDy=0;exitX=0.5;exitY=1;exitDx=0;exitDy=0;labelBackgroundColor=none;strokeColor=#457B9D;fontColor=default;" edge="1" parent="1" source="w5zsb_8FG-ZebLFqrzIn-12" target="w5zsb_8FG-ZebLFqrzIn-5">
          <mxGeometry width="50" height="50" relative="1" as="geometry">
            <mxPoint x="-120" y="-250" as="sourcePoint" />
            <mxPoint x="-70" y="-300" as="targetPoint" />
          </mxGeometry>
        </mxCell>
        <mxCell id="w5zsb_8FG-ZebLFqrzIn-43" value="" style="endArrow=none;html=1;rounded=0;entryX=0.75;entryY=0;entryDx=0;entryDy=0;exitX=0.5;exitY=1;exitDx=0;exitDy=0;labelBackgroundColor=none;strokeColor=#457B9D;fontColor=default;" edge="1" parent="1" source="w5zsb_8FG-ZebLFqrzIn-13" target="w5zsb_8FG-ZebLFqrzIn-5">
          <mxGeometry width="50" height="50" relative="1" as="geometry">
            <mxPoint x="-120" y="-250" as="sourcePoint" />
            <mxPoint x="-70" y="-300" as="targetPoint" />
          </mxGeometry>
        </mxCell>
        <mxCell id="w5zsb_8FG-ZebLFqrzIn-44" value="" style="endArrow=none;html=1;rounded=0;entryX=1;entryY=0;entryDx=0;entryDy=0;exitX=0;exitY=1;exitDx=0;exitDy=0;labelBackgroundColor=none;strokeColor=#457B9D;fontColor=default;" edge="1" parent="1" source="w5zsb_8FG-ZebLFqrzIn-14" target="w5zsb_8FG-ZebLFqrzIn-5">
          <mxGeometry width="50" height="50" relative="1" as="geometry">
            <mxPoint x="70" y="-250" as="sourcePoint" />
            <mxPoint x="120" y="-300" as="targetPoint" />
          </mxGeometry>
        </mxCell>
        <mxCell id="w5zsb_8FG-ZebLFqrzIn-45" value="" style="endArrow=none;html=1;rounded=0;entryX=0;entryY=1;entryDx=0;entryDy=0;exitX=1;exitY=0;exitDx=0;exitDy=0;labelBackgroundColor=none;strokeColor=#457B9D;fontColor=default;" edge="1" parent="1" source="w5zsb_8FG-ZebLFqrzIn-6" target="w5zsb_8FG-ZebLFqrzIn-15">
          <mxGeometry width="50" height="50" relative="1" as="geometry">
            <mxPoint x="610" y="140" as="sourcePoint" />
            <mxPoint x="660" y="90" as="targetPoint" />
          </mxGeometry>
        </mxCell>
        <mxCell id="w5zsb_8FG-ZebLFqrzIn-46" value="" style="endArrow=none;html=1;rounded=0;entryX=0;entryY=0;entryDx=0;entryDy=0;exitX=0.75;exitY=1;exitDx=0;exitDy=0;labelBackgroundColor=none;strokeColor=#457B9D;fontColor=default;" edge="1" parent="1" source="w5zsb_8FG-ZebLFqrzIn-6" target="w5zsb_8FG-ZebLFqrzIn-16">
          <mxGeometry width="50" height="50" relative="1" as="geometry">
            <mxPoint x="610" y="140" as="sourcePoint" />
            <mxPoint x="660" y="90" as="targetPoint" />
          </mxGeometry>
        </mxCell>
        <mxCell id="w5zsb_8FG-ZebLFqrzIn-47" value="" style="endArrow=none;html=1;rounded=0;entryX=0.5;entryY=1;entryDx=0;entryDy=0;exitX=0.75;exitY=0;exitDx=0;exitDy=0;labelBackgroundColor=none;strokeColor=#457B9D;fontColor=default;" edge="1" parent="1" source="w5zsb_8FG-ZebLFqrzIn-7" target="w5zsb_8FG-ZebLFqrzIn-17">
          <mxGeometry width="50" height="50" relative="1" as="geometry">
            <mxPoint x="800" y="440" as="sourcePoint" />
            <mxPoint x="850" y="390" as="targetPoint" />
          </mxGeometry>
        </mxCell>
        <mxCell id="w5zsb_8FG-ZebLFqrzIn-48" value="" style="endArrow=none;html=1;rounded=0;entryX=0;entryY=0.5;entryDx=0;entryDy=0;exitX=1;exitY=0.25;exitDx=0;exitDy=0;labelBackgroundColor=none;strokeColor=#457B9D;fontColor=default;" edge="1" parent="1" source="w5zsb_8FG-ZebLFqrzIn-7" target="w5zsb_8FG-ZebLFqrzIn-18">
          <mxGeometry width="50" height="50" relative="1" as="geometry">
            <mxPoint x="800" y="440" as="sourcePoint" />
            <mxPoint x="850" y="390" as="targetPoint" />
          </mxGeometry>
        </mxCell>
        <mxCell id="w5zsb_8FG-ZebLFqrzIn-49" value="" style="endArrow=none;html=1;rounded=0;entryX=0;entryY=0;entryDx=0;entryDy=0;exitX=0.5;exitY=1;exitDx=0;exitDy=0;labelBackgroundColor=none;strokeColor=#457B9D;fontColor=default;" edge="1" parent="1" source="w5zsb_8FG-ZebLFqrzIn-7" target="w5zsb_8FG-ZebLFqrzIn-19">
          <mxGeometry width="50" height="50" relative="1" as="geometry">
            <mxPoint x="740" y="570" as="sourcePoint" />
            <mxPoint x="790" y="520" as="targetPoint" />
          </mxGeometry>
        </mxCell>
        <mxCell id="w5zsb_8FG-ZebLFqrzIn-50" value="" style="endArrow=none;html=1;rounded=0;entryX=0.5;entryY=1;entryDx=0;entryDy=0;exitX=0.5;exitY=0;exitDx=0;exitDy=0;labelBackgroundColor=none;strokeColor=#457B9D;fontColor=default;" edge="1" parent="1" source="w5zsb_8FG-ZebLFqrzIn-4" target="w5zsb_8FG-ZebLFqrzIn-26">
          <mxGeometry width="50" height="50" relative="1" as="geometry">
            <mxPoint x="690" y="-310" as="sourcePoint" />
            <mxPoint x="740" y="-360" as="targetPoint" />
          </mxGeometry>
        </mxCell>
        <mxCell id="w5zsb_8FG-ZebLFqrzIn-51" value="" style="endArrow=none;html=1;rounded=0;entryX=0;entryY=1;entryDx=0;entryDy=0;exitX=1;exitY=0.25;exitDx=0;exitDy=0;labelBackgroundColor=none;strokeColor=#457B9D;fontColor=default;" edge="1" parent="1" source="w5zsb_8FG-ZebLFqrzIn-4" target="w5zsb_8FG-ZebLFqrzIn-27">
          <mxGeometry width="50" height="50" relative="1" as="geometry">
            <mxPoint x="690" y="-310" as="sourcePoint" />
            <mxPoint x="740" y="-360" as="targetPoint" />
          </mxGeometry>
        </mxCell>
        <mxCell id="w5zsb_8FG-ZebLFqrzIn-52" value="" style="endArrow=none;html=1;rounded=0;entryX=0;entryY=0.5;entryDx=0;entryDy=0;exitX=1;exitY=0.75;exitDx=0;exitDy=0;labelBackgroundColor=none;strokeColor=#457B9D;fontColor=default;" edge="1" parent="1" source="w5zsb_8FG-ZebLFqrzIn-4" target="w5zsb_8FG-ZebLFqrzIn-28">
          <mxGeometry width="50" height="50" relative="1" as="geometry">
            <mxPoint x="690" y="-310" as="sourcePoint" />
            <mxPoint x="740" y="-360" as="targetPoint" />
          </mxGeometry>
        </mxCell>
        <mxCell id="w5zsb_8FG-ZebLFqrzIn-53" value="" style="endArrow=none;html=1;rounded=0;exitX=0.75;exitY=1;exitDx=0;exitDy=0;entryX=0;entryY=0;entryDx=0;entryDy=0;labelBackgroundColor=none;strokeColor=#457B9D;fontColor=default;" edge="1" parent="1" source="w5zsb_8FG-ZebLFqrzIn-4" target="w5zsb_8FG-ZebLFqrzIn-29">
          <mxGeometry width="50" height="50" relative="1" as="geometry">
            <mxPoint x="690" y="-310" as="sourcePoint" />
            <mxPoint x="740" y="-360" as="targetPoint" />
          </mxGeometry>
        </mxCell>
        <mxCell id="w5zsb_8FG-ZebLFqrzIn-54" value="Clasifican" style="rhombus;whiteSpace=wrap;html=1;labelBackgroundColor=none;fillColor=#A8DADC;strokeColor=#457B9D;fontColor=#1D3557;" vertex="1" parent="1">
          <mxGeometry x="-345" y="30" width="130" height="80" as="geometry" />
        </mxCell>
        <mxCell id="w5zsb_8FG-ZebLFqrzIn-55" value="" style="endArrow=none;html=1;rounded=0;entryX=0;entryY=0.5;entryDx=0;entryDy=0;exitX=1;exitY=0.5;exitDx=0;exitDy=0;labelBackgroundColor=none;strokeColor=#457B9D;fontColor=default;" edge="1" parent="1" source="w5zsb_8FG-ZebLFqrzIn-54" target="w5zsb_8FG-ZebLFqrzIn-2">
          <mxGeometry width="50" height="50" relative="1" as="geometry">
            <mxPoint x="-20" y="320" as="sourcePoint" />
            <mxPoint x="30" y="270" as="targetPoint" />
          </mxGeometry>
        </mxCell>
        <mxCell id="w5zsb_8FG-ZebLFqrzIn-56" value="" style="endArrow=none;html=1;rounded=0;entryX=0;entryY=0.5;entryDx=0;entryDy=0;exitX=1;exitY=0.5;exitDx=0;exitDy=0;labelBackgroundColor=none;strokeColor=#457B9D;fontColor=default;" edge="1" parent="1" source="w5zsb_8FG-ZebLFqrzIn-1" target="w5zsb_8FG-ZebLFqrzIn-54">
          <mxGeometry width="50" height="50" relative="1" as="geometry">
            <mxPoint x="-20" y="320" as="sourcePoint" />
            <mxPoint x="30" y="270" as="targetPoint" />
          </mxGeometry>
        </mxCell>
        <mxCell id="w5zsb_8FG-ZebLFqrzIn-57" value="Almacenan" style="rhombus;whiteSpace=wrap;html=1;labelBackgroundColor=none;fillColor=#A8DADC;strokeColor=#457B9D;fontColor=#1D3557;" vertex="1" parent="1">
          <mxGeometry x="270" y="30" width="130" height="80" as="geometry" />
        </mxCell>
        <mxCell id="w5zsb_8FG-ZebLFqrzIn-58" value="" style="endArrow=none;html=1;rounded=0;entryX=0;entryY=0.5;entryDx=0;entryDy=0;exitX=1;exitY=0.5;exitDx=0;exitDy=0;labelBackgroundColor=none;strokeColor=#457B9D;fontColor=default;" edge="1" parent="1" source="w5zsb_8FG-ZebLFqrzIn-57" target="w5zsb_8FG-ZebLFqrzIn-6">
          <mxGeometry width="50" height="50" relative="1" as="geometry">
            <mxPoint x="430" y="180" as="sourcePoint" />
            <mxPoint x="480" y="130" as="targetPoint" />
          </mxGeometry>
        </mxCell>
        <mxCell id="w5zsb_8FG-ZebLFqrzIn-59" value="" style="endArrow=none;html=1;rounded=0;entryX=0;entryY=0.5;entryDx=0;entryDy=0;exitX=1;exitY=0.5;exitDx=0;exitDy=0;labelBackgroundColor=none;strokeColor=#457B9D;fontColor=default;" edge="1" parent="1" source="w5zsb_8FG-ZebLFqrzIn-2" target="w5zsb_8FG-ZebLFqrzIn-57">
          <mxGeometry width="50" height="50" relative="1" as="geometry">
            <mxPoint x="200" y="170" as="sourcePoint" />
            <mxPoint x="250" y="120" as="targetPoint" />
          </mxGeometry>
        </mxCell>
        <mxCell id="w5zsb_8FG-ZebLFqrzIn-60" value="Ingresados" style="rhombus;whiteSpace=wrap;html=1;labelBackgroundColor=none;fillColor=#A8DADC;strokeColor=#457B9D;fontColor=#1D3557;" vertex="1" parent="1">
          <mxGeometry x="515" y="-200" width="130" height="80" as="geometry" />
        </mxCell>
        <mxCell id="w5zsb_8FG-ZebLFqrzIn-61" value="Resgistran" style="rhombus;whiteSpace=wrap;html=1;labelBackgroundColor=none;fillColor=#A8DADC;strokeColor=#457B9D;fontColor=#1D3557;" vertex="1" parent="1">
          <mxGeometry x="160" y="-400" width="130" height="80" as="geometry" />
        </mxCell>
        <mxCell id="w5zsb_8FG-ZebLFqrzIn-62" value="" style="endArrow=none;html=1;rounded=0;exitX=1;exitY=0.5;exitDx=0;exitDy=0;entryX=0;entryY=0.25;entryDx=0;entryDy=0;labelBackgroundColor=none;strokeColor=#457B9D;fontColor=default;" edge="1" parent="1" source="w5zsb_8FG-ZebLFqrzIn-61" target="w5zsb_8FG-ZebLFqrzIn-4">
          <mxGeometry width="50" height="50" relative="1" as="geometry">
            <mxPoint x="580" y="-730" as="sourcePoint" />
            <mxPoint x="560" y="-640" as="targetPoint" />
          </mxGeometry>
        </mxCell>
        <mxCell id="w5zsb_8FG-ZebLFqrzIn-63" value="" style="endArrow=none;html=1;rounded=0;exitX=1;exitY=0.5;exitDx=0;exitDy=0;entryX=0;entryY=0.5;entryDx=0;entryDy=0;labelBackgroundColor=none;strokeColor=#457B9D;fontColor=default;" edge="1" parent="1" source="w5zsb_8FG-ZebLFqrzIn-5" target="w5zsb_8FG-ZebLFqrzIn-61">
          <mxGeometry width="50" height="50" relative="1" as="geometry">
            <mxPoint x="470" y="-370" as="sourcePoint" />
            <mxPoint x="160" y="-380" as="targetPoint" />
          </mxGeometry>
        </mxCell>
        <mxCell id="w5zsb_8FG-ZebLFqrzIn-64" value="" style="endArrow=none;html=1;rounded=0;entryX=0.5;entryY=0;entryDx=0;entryDy=0;exitX=0.5;exitY=1;exitDx=0;exitDy=0;labelBackgroundColor=none;strokeColor=#457B9D;fontColor=default;" edge="1" parent="1" source="w5zsb_8FG-ZebLFqrzIn-60" target="w5zsb_8FG-ZebLFqrzIn-6">
          <mxGeometry width="50" height="50" relative="1" as="geometry">
            <mxPoint x="430" y="70" as="sourcePoint" />
            <mxPoint x="480" y="20" as="targetPoint" />
          </mxGeometry>
        </mxCell>
        <mxCell id="w5zsb_8FG-ZebLFqrzIn-68" value="" style="endArrow=none;html=1;rounded=0;entryX=0.5;entryY=1;entryDx=0;entryDy=0;exitX=0.5;exitY=0;exitDx=0;exitDy=0;labelBackgroundColor=none;strokeColor=#457B9D;fontColor=default;" edge="1" parent="1" source="w5zsb_8FG-ZebLFqrzIn-60" target="w5zsb_8FG-ZebLFqrzIn-4">
          <mxGeometry width="50" height="50" relative="1" as="geometry">
            <mxPoint x="430" y="-30" as="sourcePoint" />
            <mxPoint x="480" y="-80" as="targetPoint" />
          </mxGeometry>
        </mxCell>
        <mxCell id="w5zsb_8FG-ZebLFqrzIn-69" value="Tipo de unidad" style="ellipse;whiteSpace=wrap;html=1;labelBackgroundColor=none;fillColor=#A8DADC;strokeColor=#457B9D;fontColor=#1D3557;" vertex="1" parent="1">
          <mxGeometry x="707" y="560" width="120" height="80" as="geometry" />
        </mxCell>
        <mxCell id="w5zsb_8FG-ZebLFqrzIn-70" value="" style="endArrow=none;html=1;rounded=0;entryX=0.25;entryY=1;entryDx=0;entryDy=0;exitX=0.5;exitY=0;exitDx=0;exitDy=0;labelBackgroundColor=none;strokeColor=#457B9D;fontColor=default;" edge="1" parent="1" source="w5zsb_8FG-ZebLFqrzIn-69" target="w5zsb_8FG-ZebLFqrzIn-7">
          <mxGeometry width="50" height="50" relative="1" as="geometry">
            <mxPoint x="1130" y="610" as="sourcePoint" />
            <mxPoint x="1180" y="560" as="targetPoint" />
          </mxGeometry>
        </mxCell>
        <mxCell id="w5zsb_8FG-ZebLFqrzIn-71" value="Ventas" style="rounded=0;whiteSpace=wrap;html=1;labelBackgroundColor=none;fillColor=#A8DADC;strokeColor=#457B9D;fontColor=#1D3557;" vertex="1" parent="1">
          <mxGeometry x="280" y="335" width="120" height="60" as="geometry" />
        </mxCell>
        <mxCell id="w5zsb_8FG-ZebLFqrzIn-72" value="Fecha de venta" style="ellipse;whiteSpace=wrap;html=1;labelBackgroundColor=none;fillColor=#A8DADC;strokeColor=#457B9D;fontColor=#1D3557;" vertex="1" parent="1">
          <mxGeometry x="40" y="430" width="120" height="80" as="geometry" />
        </mxCell>
        <mxCell id="w5zsb_8FG-ZebLFqrzIn-73" value="Método de pago" style="ellipse;whiteSpace=wrap;html=1;labelBackgroundColor=none;fillColor=#A8DADC;strokeColor=#457B9D;fontColor=#1D3557;" vertex="1" parent="1">
          <mxGeometry x="200" y="590" width="120" height="80" as="geometry" />
        </mxCell>
        <mxCell id="w5zsb_8FG-ZebLFqrzIn-74" value="Total" style="ellipse;whiteSpace=wrap;html=1;labelBackgroundColor=none;fillColor=#A8DADC;strokeColor=#457B9D;fontColor=#1D3557;" vertex="1" parent="1">
          <mxGeometry x="330" y="620" width="120" height="80" as="geometry" />
        </mxCell>
        <mxCell id="w5zsb_8FG-ZebLFqrzIn-75" value="Estado" style="ellipse;whiteSpace=wrap;html=1;labelBackgroundColor=none;fillColor=#A8DADC;strokeColor=#457B9D;fontColor=#1D3557;" vertex="1" parent="1">
          <mxGeometry x="120" y="510" width="120" height="80" as="geometry" />
        </mxCell>
        <mxCell id="w5zsb_8FG-ZebLFqrzIn-76" value="" style="endArrow=none;html=1;rounded=0;exitX=1;exitY=0.5;exitDx=0;exitDy=0;entryX=0;entryY=1;entryDx=0;entryDy=0;labelBackgroundColor=none;strokeColor=#457B9D;fontColor=default;" edge="1" parent="1" source="w5zsb_8FG-ZebLFqrzIn-72" target="w5zsb_8FG-ZebLFqrzIn-71">
          <mxGeometry width="50" height="50" relative="1" as="geometry">
            <mxPoint x="740" y="690" as="sourcePoint" />
            <mxPoint x="790" y="640" as="targetPoint" />
          </mxGeometry>
        </mxCell>
        <mxCell id="w5zsb_8FG-ZebLFqrzIn-78" value="" style="endArrow=none;html=1;rounded=0;exitX=0.5;exitY=0;exitDx=0;exitDy=0;entryX=0.25;entryY=1;entryDx=0;entryDy=0;labelBackgroundColor=none;strokeColor=#457B9D;fontColor=default;" edge="1" parent="1" source="w5zsb_8FG-ZebLFqrzIn-75" target="w5zsb_8FG-ZebLFqrzIn-71">
          <mxGeometry width="50" height="50" relative="1" as="geometry">
            <mxPoint x="740" y="690" as="sourcePoint" />
            <mxPoint x="790" y="640" as="targetPoint" />
          </mxGeometry>
        </mxCell>
        <mxCell id="w5zsb_8FG-ZebLFqrzIn-79" value="" style="endArrow=none;html=1;rounded=0;exitX=0.5;exitY=0;exitDx=0;exitDy=0;entryX=0.5;entryY=1;entryDx=0;entryDy=0;labelBackgroundColor=none;strokeColor=#457B9D;fontColor=default;" edge="1" parent="1" source="w5zsb_8FG-ZebLFqrzIn-73" target="w5zsb_8FG-ZebLFqrzIn-71">
          <mxGeometry width="50" height="50" relative="1" as="geometry">
            <mxPoint x="740" y="690" as="sourcePoint" />
            <mxPoint x="790" y="640" as="targetPoint" />
          </mxGeometry>
        </mxCell>
        <mxCell id="w5zsb_8FG-ZebLFqrzIn-80" value="" style="endArrow=none;html=1;rounded=0;exitX=0.75;exitY=1;exitDx=0;exitDy=0;entryX=0;entryY=0;entryDx=0;entryDy=0;labelBackgroundColor=none;strokeColor=#457B9D;fontColor=default;" edge="1" parent="1" source="w5zsb_8FG-ZebLFqrzIn-71" target="w5zsb_8FG-ZebLFqrzIn-74">
          <mxGeometry width="50" height="50" relative="1" as="geometry">
            <mxPoint x="740" y="690" as="sourcePoint" />
            <mxPoint x="790" y="640" as="targetPoint" />
          </mxGeometry>
        </mxCell>
        <mxCell id="w5zsb_8FG-ZebLFqrzIn-81" value="Detalle venta" style="rounded=0;whiteSpace=wrap;html=1;labelBackgroundColor=none;fillColor=#A8DADC;strokeColor=#457B9D;fontColor=#1D3557;" vertex="1" parent="1">
          <mxGeometry x="-270" y="335" width="120" height="60" as="geometry" />
        </mxCell>
        <mxCell id="w5zsb_8FG-ZebLFqrzIn-82" value="Cantidad" style="ellipse;whiteSpace=wrap;html=1;labelBackgroundColor=none;fillColor=#A8DADC;strokeColor=#457B9D;fontColor=#1D3557;" vertex="1" parent="1">
          <mxGeometry x="-270" y="190" width="120" height="80" as="geometry" />
        </mxCell>
        <mxCell id="w5zsb_8FG-ZebLFqrzIn-83" value="Precio unitario" style="ellipse;whiteSpace=wrap;html=1;labelBackgroundColor=none;fillColor=#A8DADC;strokeColor=#457B9D;fontColor=#1D3557;" vertex="1" parent="1">
          <mxGeometry x="-440" y="260" width="120" height="80" as="geometry" />
        </mxCell>
        <mxCell id="w5zsb_8FG-ZebLFqrzIn-84" value="Poseen" style="rhombus;whiteSpace=wrap;html=1;labelBackgroundColor=none;fillColor=#A8DADC;strokeColor=#457B9D;fontColor=#1D3557;" vertex="1" parent="1">
          <mxGeometry x="-80" y="330" width="110" height="70" as="geometry" />
        </mxCell>
        <mxCell id="w5zsb_8FG-ZebLFqrzIn-87" value="" style="endArrow=none;html=1;rounded=0;entryX=0;entryY=0.5;entryDx=0;entryDy=0;exitX=1;exitY=0.5;exitDx=0;exitDy=0;edgeStyle=orthogonalEdgeStyle;labelBackgroundColor=none;strokeColor=#457B9D;fontColor=default;" edge="1" parent="1" source="w5zsb_8FG-ZebLFqrzIn-84" target="w5zsb_8FG-ZebLFqrzIn-71">
          <mxGeometry width="50" height="50" relative="1" as="geometry">
            <mxPoint x="280" y="620" as="sourcePoint" />
            <mxPoint x="330" y="570" as="targetPoint" />
          </mxGeometry>
        </mxCell>
        <mxCell id="w5zsb_8FG-ZebLFqrzIn-88" value="" style="endArrow=none;html=1;rounded=0;entryX=0;entryY=0.5;entryDx=0;entryDy=0;exitX=1;exitY=0.5;exitDx=0;exitDy=0;labelBackgroundColor=none;strokeColor=#457B9D;fontColor=default;" edge="1" parent="1" source="w5zsb_8FG-ZebLFqrzIn-81" target="w5zsb_8FG-ZebLFqrzIn-84">
          <mxGeometry width="50" height="50" relative="1" as="geometry">
            <mxPoint x="-50" y="440" as="sourcePoint" />
            <mxPoint y="390" as="targetPoint" />
          </mxGeometry>
        </mxCell>
        <mxCell id="w5zsb_8FG-ZebLFqrzIn-89" value="Asociada" style="rhombus;whiteSpace=wrap;html=1;labelBackgroundColor=none;fillColor=#A8DADC;strokeColor=#457B9D;fontColor=#1D3557;" vertex="1" parent="1">
          <mxGeometry x="500" y="280" width="110" height="70" as="geometry" />
        </mxCell>
        <mxCell id="w5zsb_8FG-ZebLFqrzIn-90" value="" style="endArrow=none;html=1;rounded=0;entryX=0;entryY=0.5;entryDx=0;entryDy=0;exitX=1;exitY=0.5;exitDx=0;exitDy=0;edgeStyle=orthogonalEdgeStyle;labelBackgroundColor=none;strokeColor=#457B9D;fontColor=default;" edge="1" parent="1" source="w5zsb_8FG-ZebLFqrzIn-89" target="w5zsb_8FG-ZebLFqrzIn-7">
          <mxGeometry width="50" height="50" relative="1" as="geometry">
            <mxPoint x="620" y="590" as="sourcePoint" />
            <mxPoint x="670" y="540" as="targetPoint" />
          </mxGeometry>
        </mxCell>
        <mxCell id="w5zsb_8FG-ZebLFqrzIn-91" value="" style="endArrow=none;html=1;rounded=0;entryX=0.5;entryY=1;entryDx=0;entryDy=0;exitX=1;exitY=0.5;exitDx=0;exitDy=0;edgeStyle=orthogonalEdgeStyle;labelBackgroundColor=none;strokeColor=#457B9D;fontColor=default;" edge="1" parent="1" source="w5zsb_8FG-ZebLFqrzIn-71" target="w5zsb_8FG-ZebLFqrzIn-89">
          <mxGeometry width="50" height="50" relative="1" as="geometry">
            <mxPoint x="620" y="590" as="sourcePoint" />
            <mxPoint x="670" y="540" as="targetPoint" />
          </mxGeometry>
        </mxCell>
        <mxCell id="w5zsb_8FG-ZebLFqrzIn-92" value="" style="endArrow=none;html=1;rounded=0;entryX=0.5;entryY=1;entryDx=0;entryDy=0;exitX=0.5;exitY=0;exitDx=0;exitDy=0;labelBackgroundColor=none;strokeColor=#457B9D;fontColor=default;" edge="1" parent="1" source="w5zsb_8FG-ZebLFqrzIn-81" target="w5zsb_8FG-ZebLFqrzIn-82">
          <mxGeometry width="50" height="50" relative="1" as="geometry">
            <mxPoint x="-280" y="470" as="sourcePoint" />
            <mxPoint x="-230" y="420" as="targetPoint" />
          </mxGeometry>
        </mxCell>
        <mxCell id="w5zsb_8FG-ZebLFqrzIn-93" value="" style="endArrow=none;html=1;rounded=0;entryX=0;entryY=0.5;entryDx=0;entryDy=0;exitX=1;exitY=0.5;exitDx=0;exitDy=0;labelBackgroundColor=none;strokeColor=#457B9D;fontColor=default;" edge="1" parent="1" source="w5zsb_8FG-ZebLFqrzIn-83" target="w5zsb_8FG-ZebLFqrzIn-81">
          <mxGeometry width="50" height="50" relative="1" as="geometry">
            <mxPoint x="-280" y="470" as="sourcePoint" />
            <mxPoint x="-230" y="420" as="targetPoint" />
          </mxGeometry>
        </mxCell>
        <mxCell id="w5zsb_8FG-ZebLFqrzIn-94" value="Incluye" style="rhombus;whiteSpace=wrap;html=1;labelBackgroundColor=none;fillColor=#A8DADC;strokeColor=#457B9D;fontColor=#1D3557;" vertex="1" parent="1">
          <mxGeometry x="145" y="210" width="110" height="70" as="geometry" />
        </mxCell>
        <mxCell id="w5zsb_8FG-ZebLFqrzIn-95" value="" style="endArrow=none;html=1;rounded=0;entryX=0.5;entryY=1;entryDx=0;entryDy=0;exitX=0;exitY=0.5;exitDx=0;exitDy=0;edgeStyle=orthogonalEdgeStyle;labelBackgroundColor=none;strokeColor=#457B9D;fontColor=default;" edge="1" parent="1" source="w5zsb_8FG-ZebLFqrzIn-94" target="w5zsb_8FG-ZebLFqrzIn-2">
          <mxGeometry width="50" height="50" relative="1" as="geometry">
            <mxPoint x="320" y="290" as="sourcePoint" />
            <mxPoint x="370" y="240" as="targetPoint" />
          </mxGeometry>
        </mxCell>
        <mxCell id="w5zsb_8FG-ZebLFqrzIn-96" value="" style="endArrow=none;html=1;rounded=0;entryX=1;entryY=0.5;entryDx=0;entryDy=0;exitX=0.5;exitY=0;exitDx=0;exitDy=0;edgeStyle=orthogonalEdgeStyle;labelBackgroundColor=none;strokeColor=#457B9D;fontColor=default;" edge="1" parent="1" source="w5zsb_8FG-ZebLFqrzIn-71" target="w5zsb_8FG-ZebLFqrzIn-94">
          <mxGeometry width="50" height="50" relative="1" as="geometry">
            <mxPoint x="320" y="290" as="sourcePoint" />
            <mxPoint x="370" y="240" as="targetPoint" />
          </mxGeometry>
        </mxCell>
        <mxCell id="w5zsb_8FG-ZebLFqrzIn-97" value="1:N" style="text;html=1;align=center;verticalAlign=middle;resizable=0;points=[];autosize=1;strokeColor=none;fillColor=none;fontColor=#1D3557;" vertex="1" parent="1">
          <mxGeometry x="-30" y="-392" width="40" height="30" as="geometry" />
        </mxCell>
        <mxCell id="w5zsb_8FG-ZebLFqrzIn-98" value="N:1" style="text;html=1;align=center;verticalAlign=middle;resizable=0;points=[];autosize=1;strokeColor=none;fillColor=none;fontColor=#1D3557;" vertex="1" parent="1">
          <mxGeometry x="470" y="-392" width="40" height="30" as="geometry" />
        </mxCell>
        <mxCell id="w5zsb_8FG-ZebLFqrzIn-99" value="1:N" style="text;html=1;align=center;verticalAlign=middle;resizable=0;points=[];autosize=1;strokeColor=none;fillColor=none;fontColor=#1D3557;" vertex="1" parent="1">
          <mxGeometry x="205" y="-422" width="40" height="30" as="geometry" />
        </mxCell>
        <mxCell id="w5zsb_8FG-ZebLFqrzIn-100" value="1:N" style="text;html=1;align=center;verticalAlign=middle;resizable=0;points=[];autosize=1;strokeColor=none;fillColor=none;fontColor=#1D3557;" vertex="1" parent="1">
          <mxGeometry x="-30" y="48" width="40" height="30" as="geometry" />
        </mxCell>
        <mxCell id="w5zsb_8FG-ZebLFqrzIn-101" value="1:1" style="text;html=1;align=center;verticalAlign=middle;resizable=0;points=[];autosize=1;strokeColor=none;fillColor=none;fontColor=#1D3557;" vertex="1" parent="1">
          <mxGeometry x="-460" y="45" width="40" height="30" as="geometry" />
        </mxCell>
        <mxCell id="w5zsb_8FG-ZebLFqrzIn-102" value="1:N" style="text;html=1;align=center;verticalAlign=middle;resizable=0;points=[];autosize=1;strokeColor=none;fillColor=none;fontColor=#1D3557;" vertex="1" parent="1">
          <mxGeometry x="-300" y="8" width="40" height="30" as="geometry" />
        </mxCell>
        <mxCell id="w5zsb_8FG-ZebLFqrzIn-103" value="1:1" style="text;html=1;align=center;verticalAlign=middle;resizable=0;points=[];autosize=1;strokeColor=none;fillColor=none;fontColor=#1D3557;" vertex="1" parent="1">
          <mxGeometry x="150" y="45" width="40" height="30" as="geometry" />
        </mxCell>
        <mxCell id="w5zsb_8FG-ZebLFqrzIn-104" value="1:1" style="text;html=1;align=center;verticalAlign=middle;resizable=0;points=[];autosize=1;strokeColor=none;fillColor=none;fontColor=#1D3557;" vertex="1" parent="1">
          <mxGeometry x="490" y="48" width="40" height="30" as="geometry" />
        </mxCell>
        <mxCell id="w5zsb_8FG-ZebLFqrzIn-105" value="1:1" style="text;html=1;align=center;verticalAlign=middle;resizable=0;points=[];autosize=1;strokeColor=none;fillColor=none;fontColor=#1D3557;" vertex="1" parent="1">
          <mxGeometry x="310" y="-2" width="40" height="30" as="geometry" />
        </mxCell>
        <mxCell id="w5zsb_8FG-ZebLFqrzIn-106" value="1:1" style="text;html=1;align=center;verticalAlign=middle;resizable=0;points=[];autosize=1;strokeColor=none;fillColor=none;fontColor=#1D3557;" vertex="1" parent="1">
          <mxGeometry x="570" y="8" width="40" height="30" as="geometry" />
        </mxCell>
        <mxCell id="w5zsb_8FG-ZebLFqrzIn-107" value="N:M" style="text;html=1;align=center;verticalAlign=middle;resizable=0;points=[];autosize=1;strokeColor=none;fillColor=none;fontColor=#1D3557;" vertex="1" parent="1">
          <mxGeometry x="575" y="-322" width="50" height="30" as="geometry" />
        </mxCell>
        <mxCell id="w5zsb_8FG-ZebLFqrzIn-109" value="1:N" style="text;html=1;align=center;verticalAlign=middle;resizable=0;points=[];autosize=1;strokeColor=none;fillColor=none;fontColor=#1D3557;" vertex="1" parent="1">
          <mxGeometry x="640" y="-172" width="40" height="30" as="geometry" />
        </mxCell>
        <mxCell id="w5zsb_8FG-ZebLFqrzIn-110" value="1:1" style="text;html=1;align=center;verticalAlign=middle;resizable=0;points=[];autosize=1;strokeColor=none;fillColor=none;fontColor=#1D3557;" vertex="1" parent="1">
          <mxGeometry x="250" y="338" width="40" height="30" as="geometry" />
        </mxCell>
        <mxCell id="w5zsb_8FG-ZebLFqrzIn-111" value="1:M" style="text;html=1;align=center;verticalAlign=middle;resizable=0;points=[];autosize=1;strokeColor=none;fillColor=none;fontColor=#1D3557;" vertex="1" parent="1">
          <mxGeometry x="-150" y="338" width="40" height="30" as="geometry" />
        </mxCell>
        <mxCell id="w5zsb_8FG-ZebLFqrzIn-112" value="1:N" style="text;html=1;align=center;verticalAlign=middle;resizable=0;points=[];autosize=1;strokeColor=none;fillColor=none;fontColor=#1D3557;" vertex="1" parent="1">
          <mxGeometry x="-40" y="308" width="40" height="30" as="geometry" />
        </mxCell>
        <mxCell id="w5zsb_8FG-ZebLFqrzIn-113" value="N:1" style="text;html=1;align=center;verticalAlign=middle;resizable=0;points=[];autosize=1;strokeColor=none;fillColor=none;fontColor=#1D3557;" vertex="1" parent="1">
          <mxGeometry x="390" y="338" width="40" height="30" as="geometry" />
        </mxCell>
        <mxCell id="w5zsb_8FG-ZebLFqrzIn-115" value="N:1" style="text;html=1;align=center;verticalAlign=middle;resizable=0;points=[];autosize=1;strokeColor=none;fillColor=none;fontColor=#1D3557;" vertex="1" parent="1">
          <mxGeometry x="715" y="430" width="40" height="30" as="geometry" />
        </mxCell>
        <mxCell id="w5zsb_8FG-ZebLFqrzIn-116" value="1:N" style="text;html=1;align=center;verticalAlign=middle;resizable=0;points=[];autosize=1;strokeColor=none;fillColor=none;fontColor=#1D3557;" vertex="1" parent="1">
          <mxGeometry x="535" y="250" width="40" height="30" as="geometry" />
        </mxCell>
        <mxCell id="w5zsb_8FG-ZebLFqrzIn-117" value="1:M" style="text;html=1;align=center;verticalAlign=middle;resizable=0;points=[];autosize=1;strokeColor=none;fillColor=none;fontColor=#1D3557;" vertex="1" parent="1">
          <mxGeometry x="80" y="98" width="40" height="30" as="geometry" />
        </mxCell>
        <mxCell id="w5zsb_8FG-ZebLFqrzIn-118" value="N:M" style="text;html=1;align=center;verticalAlign=middle;resizable=0;points=[];autosize=1;strokeColor=none;fillColor=none;fontColor=#1D3557;" vertex="1" parent="1">
          <mxGeometry x="330" y="310" width="50" height="30" as="geometry" />
        </mxCell>
        <mxCell id="w5zsb_8FG-ZebLFqrzIn-119" value="N:M" style="text;html=1;align=center;verticalAlign=middle;resizable=0;points=[];autosize=1;strokeColor=none;fillColor=none;fontColor=#1D3557;" vertex="1" parent="1">
          <mxGeometry x="170" y="190" width="50" height="30" as="geometry" />
        </mxCell>
      </root>
    </mxGraphModel>
  </diagram>
</mxfile>
